<svg xmlns="http://www.w3.org/2000/svg" viewBox="0 0 24 24" fill="#7C3AED">
  <path d="M5.5 5.5A.5.5 0 0 1 6 6v6a.5.5 0 0 1-.146.354l-3 3A.5.5 0 0 1 2 15v-3a.5.5 0 0 1 .5-.5h2V6a.5.5 0 0 1 .5-.5zm14 0a.5.5 0 0 1 .5.5v5.5h2a.5.5 0 0 1 .5.5v3a.5.5 0 0 1-.854.354l-3-3A.5.5 0 0 1 18 12V6a.5.5 0 0 1 .5-.5zM9.354 8.646a.5.5 0 0 1 0 .708L7.707 11l1.647 1.646a.5.5 0 0 1-.708.708l-2-2a.5.5 0 0 1 0-.708l2-2a.5.5 0 0 1 .708 0zm5.292 0a.5.5 0 0 1 .708 0l2 2a.5.5 0 0 1 0 .708l-2 2a.5.5 0 0 1-.708-.708L16.293 11l-1.647-1.646a.5.5 0 0 1 0-.708z"/>
</svg>
